PathFileType  4	(X/Y/Z) C:\Users\antoi\Documents\MyRepositories\mobilecap\ResultsAnalysis
DataRate	CameraRate	NumFrames	NumMarkers	Units	OrigDataRate	OrigDataStartFrame	OrigNumFrames
100.0	100.0	4	51	mm	100.0	1	145
Frame#	Time	r_knee			r_shank_antsup			r_ankle			r_calc			r_5meta			r_toe			L_knee			L_shank_antsup			L_ankle			L_calc			L_5meta			L_toe			r_sh2			r_sh3			r_sh4			L_sh2			L_sh3			r_thigh1			r_thigh2			r_thigh3			r_thigh4			r_thigh5			L_thigh1			L_thigh2			L_thigh3			L_thigh4			r.ASIS			r.PSIS			L.ASIS			L.PSIS			C7			R_Shoulder			L_Shoulder			R_Sternum			L_Sternum			R_humerus			R_elbow_med			R_elbow_lat			R_forearm			R_wrist_radius			R_wrist_ulna			L_humerus			L_elbow_med			L_elbow_lat			L_forearm			L_wrist_radius			L_wrist_ulna			R_HJC			L_HJC			R_HJC_reg			L_HJC_reg			
		X1	Y1	Z1	X2	Y2	Z2	X3	Y3	Z3	X4	Y4	Z4	X5	Y5	Z5	X6	Y6	Z6	X7	Y7	Z7	X8	Y8	Z8	X9	Y9	Z9	X10	Y10	Z10	X11	Y11	Z11	X12	Y12	Z12	X13	Y13	Z13	X14	Y14	Z14	X15	Y15	Z15	X16	Y16	Z16	X17	Y17	Z17	X18	Y18	Z18	X19	Y19	Z19	X20	Y20	Z20	X21	Y21	Z21	X22	Y22	Z22	X23	Y23	Z23	X24	Y24	Z24	X25	Y25	Z25	X26	Y26	Z26	X27	Y27	Z27	X28	Y28	Z28	X29	Y29	Z29	X30	Y30	Z30	X31	Y31	Z31	X32	Y32	Z32	X33	Y33	Z33	X34	Y34	Z34	X35	Y35	Z35	X36	Y36	Z36	X37	Y37	Z37	X38	Y38	Z38	X39	Y39	Z39	X40	Y40	Z40	X41	Y41	Z41	X42	Y42	Z42	X43	Y43	Z43	X44	Y44	Z44	X45	Y45	Z45	X46	Y46	Z46	X47	Y47	Z47	X48	Y48	Z48	X49	Y49	Z49	X50	Y50	Z50	X51	Y51	Z51	

1	0.00000000	-89.19108	504.14057	-74.22377	-32.19056	460.22540	-105.97010	67.81965	128.58845	-92.83524	20.95630	59.05585	-101.25016	191.59097	134.73397	-111.21098	190.40922	176.35395	-176.59446	-444.05503	478.92978	-323.85676	-447.49369	373.14271	-321.08438	-644.91628	128.23302	-293.94092	-728.51413	109.49588	-262.03127	-557.64715	43.05158	-321.25335	-517.91675	57.11145	-259.50828	7.39667	354.34176	-77.33383	-93.72143	444.94637	-50.33118	-58.67656	336.89918	-44.31292	-522.17235	422.65175	-335.25833	-579.82622	314.33737	-336.44370	-164.54154	812.16951	-50.11290	-121.97689	706.09963	-60.66032	-156.46133	668.08762	-16.17455	-259.94958	769.93280	-2.12756	-213.87400	662.64387	-13.61083	-349.09409	727.76337	-382.73262	-372.18455	596.37587	-352.45732	-448.10836	754.38041	-329.23803	-471.47386	616.12917	-312.61069	-206.23702	950.61785	-89.06468	-404.86563	977.40729	-120.35562	-249.94527	917.76477	-336.23682	-431.43549	981.72207	-217.47345	-417.21499	1392.60312	-207.87880	-307.69311	1354.59578	-35.41726	-346.11278	1356.98861	-390.08289	-277.52387	1354.41462	-194.92010	-274.10619	1355.21748	-237.74906	-318.74489	1227.20369	37.89849	-441.45214	1042.11218	26.89581	-411.86549	1057.89221	90.21257	-370.10177	921.04865	104.52268	-370.36449	789.56374	120.73370	-384.32317	791.73204	154.48466	-302.47553	1251.02344	-452.88918	-321.79329	1010.97480	-445.29666	-269.35453	1044.43008	-492.22870	-195.72913	958.63659	-450.51907	-135.33839	812.37554	-439.54559	-128.65404	817.16013	-473.47660	-280.43904	867.05479	-87.07079	-326.43748	850.23281	-287.64806	-271.02152	851.50420	-110.31690	-315.07031	858.65766	-271.32353	
2	0.01000000	-76.51793	502.35625	-74.39263	-20.39034	457.19481	-105.80241	72.74064	124.13969	-91.57786	24.51216	56.84344	-100.65114	197.16468	127.12775	-108.50408	197.95746	169.30436	-173.47960	-432.96944	478.32109	-323.26481	-438.59409	372.53568	-321.05023	-641.29449	132.11789	-293.86818	-724.98498	115.81481	-261.66010	-556.95100	43.56517	-321.12836	-517.23551	56.38955	-259.45317	16.92066	350.54046	-76.84625	-82.51237	443.02169	-50.59041	-49.58886	334.37199	-44.28020	-512.24012	423.67581	-334.69833	-572.29503	316.67137	-335.92060	-150.96130	810.68604	-48.72142	-108.71705	704.70341	-59.87685	-143.83372	666.43898	-16.11803	-246.82845	768.39328	-1.65402	-201.12391	661.07759	-13.89480	-336.95785	726.86323	-382.02209	-360.39077	595.34672	-351.79019	-435.11176	753.77518	-327.64671	-459.27958	615.67637	-311.32161	-191.67683	949.49489	-87.89479	-390.60552	976.42242	-119.07128	-236.19936	916.63085	-334.94167	-417.31929	980.61974	-216.05003	-403.29647	1391.42725	-205.95605	-293.65096	1353.32925	-33.55036	-331.91431	1355.98144	-388.27238	-263.44771	1353.27138	-193.11617	-260.13955	1354.03079	-235.95747	-305.34427	1225.77004	39.53820	-429.13513	1041.58292	27.54329	-399.47774	1057.03227	90.98435	-360.54152	919.66900	105.91368	-363.48259	788.54268	122.55108	-377.44073	790.95656	156.69962	-287.66069	1249.96698	-450.77201	-306.51939	1009.75853	-442.72014	-254.00960	1043.31465	-489.54990	-180.32411	957.91550	-447.04768	-119.47904	811.97637	-434.93579	-112.67666	816.70432	-468.86197	-266.11368	866.00778	-85.80762	-312.48899	849.09531	-286.28997	-256.74549	850.53808	-108.88196	-301.08283	857.50400	-269.83706	
3	0.02000000	-64.09328	500.59098	-74.34955	-8.68411	454.31361	-105.47827	77.82719	119.88721	-90.44310	27.99998	55.09962	-100.19657	202.69662	119.33540	-106.03808	205.55724	162.05307	-170.59543	-421.60276	477.67793	-322.67751	-429.43806	371.92627	-321.04004	-637.44594	136.12764	-293.77547	-721.20044	122.37521	-261.24495	-556.18756	44.14762	-320.98967	-516.44984	55.66750	-259.40037	26.40525	346.89743	-76.28400	-71.42701	441.11893	-50.76696	-40.56877	331.90452	-44.27672	-502.00711	424.71150	-334.13206	-564.51493	319.08458	-335.40014	-137.37069	809.25477	-47.23357	-95.55427	703.29964	-58.91392	-131.33278	664.82004	-15.91332	-233.74651	767.00712	-1.12856	-188.51366	659.61574	-14.08740	-324.54857	725.89542	-381.24964	-348.37248	594.30552	-351.13000	-421.92807	753.10552	-326.01985	-446.85247	615.15004	-309.99661	-177.05975	948.38230	-86.68769	-376.28968	975.50739	-117.76687	-222.33866	915.56352	-333.64923	-403.13849	979.53116	-214.62781	-389.31735	1390.29586	-203.99613	-279.55153	1352.10864	-31.64177	-317.62587	1355.00933	-386.41953	-249.31593	1352.18580	-191.27081	-246.11533	1352.90674	-234.12081	-291.87422	1224.39037	41.20518	-416.75386	1041.12834	28.25044	-386.99725	1056.21781	91.79885	-350.80893	918.34645	107.27464	-356.43571	787.54188	124.32655	-370.34563	790.22632	158.82579	-272.75401	1248.94486	-448.59058	-291.29310	1008.57597	-440.13978	-238.70880	1042.22608	-486.84288	-164.98203	957.19820	-443.56988	-103.72717	811.55808	-430.33737	-96.79967	816.21655	-464.26610	-251.73360	864.98496	-84.53708	-298.45227	848.01221	-284.93510	-242.43227	849.69468	-107.37109	-287.03982	856.37867	-268.29694	
4	0.03000000	-52.07709	498.88857	-73.93133	2.87878	451.70187	-104.87368	83.19146	115.97717	-89.52952	31.38502	54.14796	-99.99821	208.13065	111.26655	-104.00141	213.20677	154.47462	-168.13315	-409.69994	476.96958	-322.10755	-419.79634	371.30656	-321.08229	-633.15113	140.35678	-293.64244	-716.92085	129.38862	-260.74001	-555.29402	44.85695	-320.82475	-515.45671	54.94933	-259.35011	35.83971	343.53936	-75.59239	-60.52932	439.27625	-50.77487	-31.64002	329.56089	-44.30790	-491.20554	425.76694	-333.55682	-556.25383	321.63939	-334.87974	-123.75277	807.94811	-45.57010	-82.54767	701.92180	-57.62580	-119.03771	663.29019	-15.43501	-220.71755	765.91984	-0.49699	-176.13018	658.36915	-14.09577	-311.66384	724.82494	-380.37391	-335.93625	593.24544	-350.48984	-408.41247	752.31857	-324.32543	-433.98964	614.48489	-308.60594	-162.34655	947.30632	-85.41787	-361.88167	974.72965	-116.43463	-208.28146	914.61035	-332.36037	-388.84613	978.47308	-213.21566	-375.22654	1389.24901	-201.97305	-265.34734	1350.97221	-29.66244	-303.18353	1354.11200	-384.49551	-235.08288	1351.20652	-189.35002	-231.98724	1351.90005	-232.20467	-278.27106	1223.10779	42.91774	-404.25456	1040.80740	29.06567	-374.34612	1055.48645	92.68793	-340.76711	917.13154	108.58365	-349.07502	786.59092	126.02068	-362.85762	789.58044	160.79538	-257.69381	1247.99327	-446.29270	-276.16374	1007.46519	-437.54590	-223.49459	1041.19505	-484.08535	-149.76205	956.49345	-440.08140	-88.18117	811.11457	-425.76823	-81.11123	815.68317	-459.70376	-237.26194	864.02291	-83.24968	-284.26370	847.02537	-283.58087	-228.06107	849.08335	-105.72358	-272.90038	855.30595	-266.66036	
